<svg xmlns="http://www.w3.org/2000/svg" xml:space="preserve" width="511" height="511" style="enable-background:new 0 0 511 511"><path d="M511 431.001C511 475.184 475.183 511 431 511H80c-44.183 0-80-35.816-80-79.999v-327L104 0h327c44.183 0 80 35.818 80 80.001v351z" style="fill:#f3c40f"/><path d="M176 104h16v34h-16z" style="fill:#ebebeb"/><path d="M244 103.206a7.793 7.793 0 0 1-7.794 7.794H131.794a7.793 7.793 0 0 1-7.794-7.794V65.794A7.793 7.793 0 0 1 131.794 58h104.412A7.793 7.793 0 0 1 244 65.794v37.412z" style="fill:#b5b5b5"/><path d="M136.178 103c-2.144 0-4.178-1.546-4.178-3.69V69.692c0-2.143 2.034-3.692 4.178-3.692h96.645c2.144 0 3.178 1.55 3.178 3.692V99.31c0 2.145-1.034 3.69-3.178 3.69h-96.645z" style="fill:#212d3b"/><path d="M232.822 103c2.144 0 3.178-1.546 3.178-3.69V69.692c0-2.143-1.034-3.692-3.178-3.692H180.5l11.942 37h40.38z" style="fill:#2d3e50"/><path d="M192 138h-5l-10.5-27H192z" style="opacity:.2;fill:#5d5d5d"/><path d="M0 104h69.334C88.4 104 104 88.667 104 69.601V.001L0 104z" style="fill:#ffd636"/><path d="M0 159.734V104h55.467z" style="opacity:.2;fill:#5d5d5d"/><path d="M112 138h292v99H112z" style="fill:#ebebeb"/><path d="M400.273 188H379.5l15.643 31H311.5l6 18h86.726H404v-40.624zM294.5 237h-154l-9-28h154z" style="opacity:.2;fill:#5d5d5d"/><path d="M449.5 353h-387l50-116h292z" style="fill:#dedede"/><path d="M455.5 353h-400C50 353 45 357.501 45 363.001v60C45 439.501 59 453 75.5 453h360c16.5 0 29.5-13.499 29.5-29.999v-60c0-5.5-4-10.001-9.5-10.001z" style="fill:#707070"/><path d="M273 334H104.5l30-86H273zM416.5 334H289v-86h97.5z" style="fill:#f2f2f2"/><path d="M273 334H104.5l30-86H273zM416.5 334H289v-86h97.5z" style="fill:#cfcfcf"/><path d="M285 209c0 5.522-4.477 10-10 10H141c-5.523 0-10-4.478-10-10v-48c0-5.522 4.477-10 10-10h134c5.523 0 10 4.478 10 10v48z" style="fill:#212d3b"/><path d="M275 204a5 5 0 0 1-5 5H146a5 5 0 0 1-5-5v-38a5 5 0 0 1 5-5h124a5 5 0 0 1 5 5v38z" style="fill:#2d3e50"/><path d="M270.5 209c2.75 0 4.5-2.249 4.5-4.999v-38c0-2.75-1.75-5.001-4.5-5.001h-94l15.506 48H270.5z" style="fill:#394f66"/><path d="M313 151h81v68h-81z" style="fill:#2d3e50"/><path d="M400.5 182h-94l5-31h84z" style="fill:#fff"/><path d="M395.5 219h-84l-5-31h94z" style="fill:#e6e6e6"/><path d="M104 334h169v10H104zM289 334h127v10H289z" style="fill:#b0b0b0"/><path d="M112 133h292v13H112z" style="fill:#cfcfcf"/><path d="M276.5 353h-169l-3-9h169zM419.5 353h-127l-3-9h127zM435.5 453c16.5 0 29.5-13.499 29.5-29.999v-60c0-5.5-4-10.001-9.5-10.001h-301l30.238 100H435.5z" style="opacity:.2;fill:#5d5d5d"/></svg>