<svg xmlns="http://www.w3.org/2000/svg" xml:space="preserve" width="224.33" height="224.33" style="enable-background:new 0 0 224.33 224.33"><path d="M187.744 119.241c.67-31.958-24.781-58.503-56.731-59.179-31.956-.675-58.506 24.773-59.182 56.727-.01.538.041 1.035.046 1.574h-.005c0 .162.02.324.02.497.021 1.635.089 3.28.251 4.885.076.854.218 1.696.333 2.539.134.944.249 1.879.432 2.793.061.33.086.66.15.98h.083c.681 3.199 1.569 6.316 2.755 9.303h-.114c1.627 4.164 3.75 8.079 6.246 11.71h.249a58.207 58.207 0 0 0 21.762 18.783h-.675a57.47 57.47 0 0 0 22.988 6.286c.011-.102 0-.233 0-.34.741.046 1.463.143 2.214.162 6.957.138 13.619-1 19.855-3.133v.346a57.217 57.217 0 0 0 14.035-7.019v-.365c14.897-10.186 24.871-27.146 25.288-46.549zm-58.885 42.173c-20.439-.427-37.275-15.011-41.457-34.154-.135-.65-.294-1.29-.399-1.94-.114-.7-.193-1.411-.276-2.112-.165-1.513-.302-3.036-.308-4.601-.005-.508-.056-.995-.045-1.513.041-2.021.269-4.002.582-5.952h.058a43.083 43.083 0 0 1 3.738-11.702h-.175c7.117-14.965 22.503-25.202 40.111-24.829 6.348.135 12.329 1.666 17.712 4.233v.345a43.667 43.667 0 0 1 14.046 10.685v-.344c6.86 7.868 10.963 18.169 10.729 29.401-.504 23.933-20.388 42.995-44.316 42.483zm95.471 44.701-13.086 12.543-43.579-45.463 13.081-12.543 43.584 45.463zM66.354 62.162H36.087c-7.274 0-7.274-11.705 0-11.705h30.267c7.279 0 7.279 11.705 0 11.705zM36.087 81.085c-7.274 0-7.274-11.705 0-11.705h30.267c7.274 0 7.274 11.705 0 11.705H36.087zm126.368 17.544v39.374a38.868 38.868 0 0 1-14.04 13.63V85.025c5.783 3.245 10.612 7.958 14.04 13.604zm-14.04 80.049c4.971-1.554 9.663-3.772 14.04-6.448v44.401H0V5.672h132.271l30.184 29.27v29.432c-4.418-2.684-9.12-4.827-14.04-6.345V42.007h-23.38V19.715H14.043v182.87h134.371v-23.907zm-27.457-27.608h-10.841a38.418 38.418 0 0 1-12.225-11.71h23.071c7.266.005 7.266 11.71-.005 11.71zm-86.453-11.705h35.749a61.42 61.42 0 0 0 5.548 11.71H34.505c-7.269-.005-7.269-11.71 0-11.71zm86.453-9.298H93.44a37.954 37.954 0 0 1-1.846-11.71h29.358c7.277 0 7.277 11.71.006 11.71zm-86.453-11.71h32.156c-.005 3.966.338 7.887 1.056 11.71H34.505c-7.269 0-7.269-11.71 0-11.71zm86.453-7.205h-28.66a37.811 37.811 0 0 1 4.357-11.708h24.303c7.271 0 7.271 11.708 0 11.708zM34.505 99.444h35.074a62.1 62.1 0 0 0-2.531 11.708H34.506c-7.27 0-7.27-11.708-.001-11.708zm56.185 82.129c-7.274 0-7.274-11.699 0-11.699h2.574c8.77 6.256 18.951 10.115 29.754 11.263-.604.244-1.279.437-2.057.437l-30.271-.001z"/></svg>